<?xml version="1.0" encoding="utf-8"?>
<!-- Generator: Adobe Illustrator 23.0.6, SVG Export Plug-In . SVG Version: 6.00 Build 0)  -->
<svg version="1.1" id="レイヤー_1" xmlns="http://www.w3.org/2000/svg" xmlns:xlink="http://www.w3.org/1999/xlink" x="0px"
	 y="0px" viewBox="0 0 201.1 30.5" style="enable-background:new 0 0 201.1 30.5;" xml:space="preserve">
<style type="text/css">
	.st0{fill:#FFFFFF;}
</style>
<title>アセット 50</title>
<g>
	<g id="レイヤー_1-2">
		<g>
			<polygon class="st0" points="114.7,7.3 126.4,7.3 126.4,0.3 107.7,0.3 107.7,30.2 126.4,30.2 126.4,23.2 114.7,23.1 114.7,18.8 
				114.7,18.8 126.4,18.8 126.4,11.7 114.7,11.7 114.7,11.7 			"/>
			<polygon class="st0" points="15.7,15.2 7.1,0.3 0,0.3 0,30.2 7,30.2 7,14.3 15.7,29.3 24.4,14.3 24.4,30.2 31.4,30.2 31.4,0.3 
				24.3,0.3 			"/>
			<path class="st0" d="M86.7,20.8c0,1.5-1.2,2.6-2.6,2.6h-1.8c-1.5,0-2.6-1.2-2.6-2.6V0.3h-7v21.4c0,4.9,3.9,8.8,8.8,8.8h3.5
				c4.9,0,8.8-3.9,8.8-8.8V0.3h-7V20.8z"/>
			<path class="st0" d="M168.8,0.3h-12.3v29.9h7v-7h5.3c4.9,0,8.8-3.9,8.8-8.8V9.1C177.6,4.2,173.7,0.3,168.8,0.3z M163.6,7.3h4.4
				c1.5,0,2.6,1.2,2.6,2.6v3.5c0,1.5-1.2,2.6-2.6,2.6h-4.4L163.6,7.3z"/>
			<polygon class="st0" points="50.1,0.3 50.1,11.7 56.7,0.3 			"/>
			<polygon class="st0" points="50.1,30.2 56.7,30.2 50.1,18.8 			"/>
			<path class="st0" d="M192.3,0h-3.5c-4.9,0-8.8,3.9-8.8,8.8v12.9c0,4.9,3.9,8.8,8.8,8.8h3.5c4.9,0,8.8-3.9,8.8-8.8V8.8
				C201.1,3.9,197.1,0,192.3,0z M194,9.7v11.1c0,1.5-1.2,2.6-2.6,2.6h-1.8c-1.5,0-2.6-1.2-2.6-2.6V9.7c0-1.5,1.2-2.6,2.6-2.6h1.8
				C192.9,7,194,8.2,194,9.7z"/>
			<polygon class="st0" points="33.7,19.2 38.4,19.2 38.4,21.8 33.7,21.8 33.7,24.1 38.4,24.1 38.4,26.7 33.7,26.7 33.7,30.2 
				43.1,30.2 43.1,0.3 33.7,0.3 			"/>
			<polygon class="st0" points="64.1,0.3 55.5,15.2 64.1,30.2 71.4,30.2 62.8,15.2 71.4,0.3 			"/>
			<polygon class="st0" points="146.1,0.3 141.5,8.2 136.9,0.3 128.8,0.3 146.1,30.2 154.2,30.2 145.6,15.2 154.2,0.3 			"/>
			<polygon class="st0" points="128.8,30.2 138.7,30.2 133.8,21.6 			"/>
		</g>
	</g>
</g>
</svg>
