<svg xmlns="http://www.w3.org/2000/svg" viewBox="0 0 486.28 101.81"><defs><style>.cls-1{fill:#fff;}</style></defs><title>アセット 70</title><g id="レイヤー_2" data-name="レイヤー 2"><g id="レイヤー_1-2" data-name="レイヤー 1"><polygon class="cls-1" points="305.73 55.99 277.46 55.98 277.46 45.35 277.46 45.35 305.8 45.36 305.8 28.36 277.46 28.35 277.46 28.34 277.46 17.71 305.73 17.72 305.8 0.71 260.45 0.71 260.45 72.99 305.8 73 305.73 55.99"/><polygon class="cls-1" points="75.93 72.99 75.93 0.71 58.83 0.71 37.96 36.85 17.09 0.71 0 0.71 0 72.99 17.01 72.99 17.01 34.57 37.96 70.86 58.92 34.57 58.92 72.99 75.93 72.99"/><path class="cls-1" d="M209.58,50.31a6.38,6.38,0,0,1-6.38,6.38H199a6.38,6.38,0,0,1-6.38-6.38V.71h-17V52.44A21.29,21.29,0,0,0,196.82,73.7h8.5a21.28,21.28,0,0,0,21.26-21.26V.71h-17Z"/><path class="cls-1" d="M408.32.71H378.56V73h17V56h12.75a21.28,21.28,0,0,0,21.26-21.26V22A21.28,21.28,0,0,0,408.32.71Zm4.26,31.89A6.39,6.39,0,0,1,406.2,39H395.57V17.72H406.2a6.39,6.39,0,0,1,6.38,6.38Z"/><polygon class="cls-1" points="121.28 0.7 121.28 28.33 137.24 0.69 121.28 0.7"/><polygon class="cls-1" points="121.28 72.98 137.24 72.99 121.28 45.35 121.28 72.98"/><path class="cls-1" d="M465,0h-8.51a21.29,21.29,0,0,0-21.26,21.26V52.45a21.29,21.29,0,0,0,21.26,21.26H465a21.29,21.29,0,0,0,21.26-21.26V21.26A21.29,21.29,0,0,0,465,0Zm4.25,50.32a6.38,6.38,0,0,1-6.38,6.38h-4.25a6.38,6.38,0,0,1-6.38-6.38V23.39A6.38,6.38,0,0,1,458.64,17h4.25a6.38,6.38,0,0,1,6.38,6.38Z"/><polygon class="cls-1" points="81.59 46.41 92.93 46.41 92.93 52.79 81.59 52.79 81.59 58.19 92.93 58.19 92.93 64.57 81.59 64.57 81.59 72.99 104.27 72.99 104.27 0.71 81.59 0.71 81.59 46.41"/><polygon class="cls-1" points="151.85 36.86 172.73 0.71 155.01 0.71 134.14 36.86 155 72.99 172.71 72.99 151.85 36.86"/><polygon class="cls-1" points="352.02 36.86 372.89 0.71 353.25 0.71 342.2 19.85 331.15 0.71 311.51 0.71 353.25 73 372.89 73 352.02 36.86"/><polygon class="cls-1" points="311.52 73 335.53 73 323.52 52.2 311.52 73"/><path class="cls-1" d="M241.94,81.18c-5.35,0-7.86,3.18-7.86,7.66V94c0,4.37,2.51,7.55,7.86,7.55s7.88-3.4,7.88-7.66V88.73C249.82,84.58,247.34,81.18,241.94,81.18Zm3.67,12.74c0,2.16-.94,3.78-3.67,3.78s-3.64-1.62-3.64-3.78V88.84c0-2.16.91-3.78,3.64-3.78s3.67,1.62,3.67,3.78Z"/><path class="cls-1" d="M284.57,81.5h-3.19a.38.38,0,0,0-.43.4v9.48a48.15,48.15,0,0,0,.3,5.37h-.08c-.51-1.62-1.22-3.8-2.05-5.78l-3.86-8.9c-.16-.38-.33-.57-.7-.57H270a.5.5,0,0,0-.57.57v18.78a.39.39,0,0,0,.43.41H273a.38.38,0,0,0,.43-.41v-9.5c0-1.89-.11-3.72-.27-5.42h.08a49,49,0,0,0,2.13,5.85l4,8.91a.76.76,0,0,0,.75.57h4.27a.5.5,0,0,0,.56-.57V81.9A.36.36,0,0,0,284.57,81.5Z"/><path class="cls-1" d="M316.75,97.37h-7.42V81.9a.36.36,0,0,0-.4-.4h-3.38a.39.39,0,0,0-.43.4v18.95a.38.38,0,0,0,.41.41h11.25a.36.36,0,0,0,.35-.38v-3C317.13,97.53,317,97.37,316.75,97.37Z"/><path class="cls-1" d="M339.49,81.5h-3.37a.39.39,0,0,0-.44.4v18.95a.4.4,0,0,0,.44.41h3.37a.37.37,0,0,0,.41-.41V81.9A.37.37,0,0,0,339.49,81.5Z"/><path class="cls-1" d="M375.21,81.5H372a.38.38,0,0,0-.43.4v9.48a48.15,48.15,0,0,0,.3,5.37h-.08c-.52-1.62-1.22-3.8-2.05-5.78l-3.86-8.9c-.17-.38-.33-.57-.71-.57h-4.58a.5.5,0,0,0-.57.57v18.78a.39.39,0,0,0,.43.41h3.16a.38.38,0,0,0,.43-.41v-9.5c0-1.89-.11-3.72-.27-5.42h.08A49,49,0,0,0,366,91.78l4,8.91a.76.76,0,0,0,.75.57h4.27a.5.5,0,0,0,.56-.57V81.9A.36.36,0,0,0,375.21,81.5Z"/><path class="cls-1" d="M407.53,97.48H400V93h6.75c.24,0,.4-.14.4-.44V89.81a.39.39,0,0,0-.4-.43H400v-4.1h7.53a.38.38,0,0,0,.41-.43V81.9a.39.39,0,0,0-.41-.4H396.19a.39.39,0,0,0-.43.4v18.95a.39.39,0,0,0,.43.41h11.34a.38.38,0,0,0,.43-.41V97.91A.39.39,0,0,0,407.53,97.48Z"/><path class="cls-1" d="M86.14,97.55H81L84.22,94C86.3,91.83,87,90,87,88v-.64c0-3.65-2.27-5.57-6.24-5.57a19.08,19.08,0,0,0-5,.77v2.81c0,.71.42,1,1.09.84a14,14,0,0,1,3.26-.55c1.57,0,2.4.77,2.4,2.08v.39A4,4,0,0,1,81.44,91l-5.63,6.82A1.72,1.72,0,0,0,75.39,99v2.4H87.14V98.55A.91.91,0,0,0,86.14,97.55Z"/><path class="cls-1" d="M114.14,81.81c-4,0-6.23,2.11-6.23,6.59v6.75c0,4.45,2.2,6.66,6.23,6.66s6.21-2.21,6.21-6.66V88.4C120.35,83.92,118.08,81.81,114.14,81.81ZM116,95.51c0,1.72-.64,2.43-1.86,2.43s-1.85-.71-1.85-2.43V88.08c0-1.73.61-2.4,1.85-2.4s1.86.67,1.86,2.4Z"/><path class="cls-1" d="M151.17,97.55H146L149.25,94c2.08-2.2,2.78-4,2.78-6v-.64c0-3.65-2.27-5.57-6.24-5.57a19.08,19.08,0,0,0-5,.77v2.81c0,.71.42,1,1.09.84a14,14,0,0,1,3.26-.55c1.57,0,2.4.77,2.4,2.08v.39A4,4,0,0,1,146.46,91l-5.63,6.82a1.71,1.71,0,0,0-.41,1.22v2.4h11.74V98.55A.9.9,0,0,0,151.17,97.55Z"/><path class="cls-1" d="M171.71,84.43l.61,2.85c.16.67.61.93,1.22.64l2.52-1.15h.07v13.66a.89.89,0,0,0,1,1h3.39V82.2h-3.3Z"/></g></g></svg>