<svg xmlns="http://www.w3.org/2000/svg" width="217.998" height="93.533" viewBox="0 0 217.998 93.533"><title>logo_miku</title><g id="レイヤー_2" data-name="レイヤー 2"><g id="レイヤー_1-2" data-name="レイヤー 1"><path d="M199.569,35.718H184.444L167.533,51.2a7.556,7.556,0,0,1,2.551,5.856v6.148Z" fill="none"/><path d="M114.547,35.691a17.3,17.3,0,0,1,3.372,7.72V35.7H116v-.222A7.88,7.88,0,0,1,114.547,35.691Z" fill="none"/><path d="M209.983,18.868H177.407l-7.372,6.787a8.037,8.037,0,0,0-7.93-6.787l-28.426-.011.006-3.5c-.071-3.128-2.5-7.783-8.9-7.783a8.824,8.824,0,0,0-6.544,2.5,7.75,7.75,0,0,0-1.137,1.472,8.286,8.286,0,0,0-6.865-3.816l-8.225,0V0H84.366l-.034,7.724L68.106,7.715V9.1a8.425,8.425,0,0,0-4.582-1.381H39.9a9.488,9.488,0,0,0-2.01-.31V0H20.251l-.033,7.418-8.145.01V24.566h3.046L0,38.738V62.654L20.333,43.681V66.067H37.791V55.57l3.781,3.565v6.933H71.539V35.7h.621V66.043H99.05a23.172,23.172,0,0,0,9.289-2.216A17.12,17.12,0,0,0,116,56.81v9.224h35.455V82l11.537,11.537,55-51.462V26.744A7.787,7.787,0,0,0,209.983,18.868Zm6.342,22.477L163.032,91.207l-7.043-7.042-2-2.006-.856-.855V64.36H117.674v-13.5h44.395a6.148,6.148,0,0,1,6.342,6.2v10L201.9,35.834V34.045h-18.1L165.588,50.716v-4.8a6.565,6.565,0,0,1-5.475,3.369H119.592v-13.5l40.42.019a6.518,6.518,0,0,1,5.576,3.311V32.93a6.781,6.781,0,0,1-3.383,1.1H117.674V32.974a6.769,6.769,0,0,1-3.312,1.052h-3.869c3.432,2.624,6.091,6.825,6.091,13.307,0,8.809-4.879,13.012-8.972,14.988A21.333,21.333,0,0,1,99.05,64.37H73.832V34.026H69.866V64.394H43.244V58.413c-1.988-1.876-6.12-5.77-7.126-6.719v12.7H22.006V39.832L1.673,58.806V39.463L19.352,22.894h-5.6V9.1l3.133,0,5.037-.006c-.018-.152-.028-.3-.031-.446l0-.042.033-6.928H36.223V8.519a5.3,5.3,0,0,1-.027.551h1.229a7.863,7.863,0,0,1,2.249.321h23.85a6.177,6.177,0,0,1,6.255,5.154V9.389l16.3.009A5.491,5.491,0,0,1,86,8.643V8.6l.031-6.928h14.308V8.519a5.15,5.15,0,0,1-.07.884l9.968,0a6.411,6.411,0,0,1,6.376,6.69,6.726,6.726,0,0,1-1.537,4.509,6.852,6.852,0,0,1,2.6.959V15.524a6.2,6.2,0,0,1,1.757-4.272,7.2,7.2,0,0,1,5.351-2c5.2,0,7.174,3.677,7.229,6.148v.039L132,20.529l30.1.012a6.413,6.413,0,0,1,6.377,6.69,7.683,7.683,0,0,1-.393,2.49l9.971-9.181h31.924a6.149,6.149,0,0,1,6.342,6.2ZM117.919,35.7v7.712a17.3,17.3,0,0,0-3.372-7.72A7.88,7.88,0,0,0,116,35.478V35.7Zm49.614,15.5,16.911-15.486h15.125L170.083,63.209V57.061A7.556,7.556,0,0,0,167.533,51.2Z" fill="#009ab4"/><line x1="36.223" y1="8.519" x2="36.223" y2="8.572" fill="none" stroke="#fff" stroke-linecap="round" stroke-linejoin="round" stroke-width="0"/><rect x="89.136" y="20.036" width="8.154" height="3.912" fill="#fff"/><path d="M85.094,43.82l13.016.016a3.28,3.28,0,0,1,3.24,3.555,3.406,3.406,0,0,1-3.24,3.658H85.094v3.014H99.416s5.906,0,5.906-6.48-5.906-6.534-5.906-6.534H85.094Z" fill="#fff"/><path d="M209.983,20.541H178.059l-9.971,9.181a7.683,7.683,0,0,0,.393-2.49,6.413,6.413,0,0,0-6.377-6.69L132,20.529l.011-5.09V15.4c-.056-2.472-2.027-6.148-7.229-6.148a7.2,7.2,0,0,0-5.351,2,6.2,6.2,0,0,0-1.757,4.272v6.042a6.852,6.852,0,0,0-2.6-.959,6.726,6.726,0,0,0,1.537-4.509,6.411,6.411,0,0,0-6.376-6.69l-9.968,0a5.15,5.15,0,0,0,.07-.884V1.673H86.031L86,8.6v.042a5.491,5.491,0,0,0,.078.755l-16.3-.009v5.156a6.177,6.177,0,0,0-6.255-5.154H39.674a7.863,7.863,0,0,0-2.249-.321H36.2a5.3,5.3,0,0,0,.027-.551V1.673H21.916L21.883,8.6l0,.042c0,.144.014.294.031.446l-5.037.006-3.133,0V22.894h5.6L1.673,39.463V58.806L22.006,39.832V64.394H36.118v-12.7c1.006.948,5.138,4.843,7.126,6.719v5.981H69.866V34.026h3.966V64.37H99.05a21.333,21.333,0,0,0,8.562-2.049c4.093-1.977,8.972-6.18,8.972-14.988,0-6.481-2.659-10.683-6.091-13.307h3.869a6.769,6.769,0,0,0,3.312-1.052v1.053h44.532a6.781,6.781,0,0,0,3.383-1.1v6.185a6.518,6.518,0,0,0-5.576-3.311l-40.42-.019v13.5h40.522a6.565,6.565,0,0,0,5.475-3.369v4.8l18.205-16.671h18.1v1.789L168.411,67.056v-10a6.148,6.148,0,0,0-6.342-6.2H117.674v13.5h35.455V81.3l.856.855,2,2.006,7.043,7.042,53.293-49.861v-14.6A6.149,6.149,0,0,0,209.983,20.541ZM120.811,54.272h41.258s3.205,0,3.205,3.066V71.311l-8.154,7.736V61.5H120.811Zm84.223-16.8V31.187H182.575L168.723,43.87V33.678l10.559-9.722h30.7s3.205,0,3.205,3.066V40.264L163.106,87.123l-5.463-5.462ZM113.447,47.611c0,13.9-14.4,13.9-14.4,13.9H76.969V33.6H99.05S113.447,33.71,113.447,47.611ZM68.96,31.169v-7.23l12.126,0V20.036H72.915v-7.23l37.32.018a3.28,3.28,0,0,1,3.24,3.554,3.407,3.407,0,0,1-3.24,3.659h-4.9v3.917l8.92,0a3.28,3.28,0,0,1,3.24,3.555,3.406,3.406,0,0,1-3.24,3.658ZM97.2,5.088V8.851s.052,3.084-3.973,3.084-4.095-3.084-4.095-3.084l.018-3.763Zm23.607,26.081V15.75s-.053-3.084,3.973-3.084,4.094,3.084,4.094,3.084l-.017,8.192,33.244.014a3.28,3.28,0,0,1,3.24,3.555,3.406,3.406,0,0,1-3.24,3.658ZM4.809,41.1,27.285,20.036h-10.4V12.509s19.34-.025,20.542-.025a3.671,3.671,0,0,1,3.92,3.789c0,1.655-2.144,3.5-2.144,3.5L4.809,51.867ZM33.086,5.088V8.851s.053,3.084-3.973,3.084S25.02,8.851,25.02,8.851l.017-3.763ZM66.73,15.872V61.537H58.576v-41.5H42.338v-7.23H63.524S66.73,12.806,66.73,15.872ZM54.465,24.687v36.85H46.381V24.687s-.018-2.769,4.111-2.769S54.465,24.687,54.465,24.687Zm-9.1-3.518V31.657l-4.25,3.833s-2.982,2.337-5.245-.522.584-5.5.584-5.5ZM32.982,61.537H25.142v-25.3A4.05,4.05,0,0,1,31.937,33.1c.51.509,9.251,8.728,9.251,8.728v10.61l-8.205-7.735Zm89.745-15.105V39.2l37.285.018a3.281,3.281,0,0,1,3.242,3.554,3.408,3.408,0,0,1-3.242,3.659Z" fill="#fff"/><path d="M213.188,40.264V27.022c0-3.066-3.205-3.066-3.205-3.066h-30.7l-10.559,9.722V43.87l13.851-12.683h22.459v6.289L157.643,81.661l5.463,5.462Z" fill="#e3007f"/><path d="M29.113,11.935c4.025,0,3.973-3.084,3.973-3.084V5.088H25.037L25.02,8.851S25.09,11.935,29.113,11.935Z" fill="#e3007f"/><path d="M41.345,16.272a3.671,3.671,0,0,0-3.92-3.789c-1.2,0-20.542.025-20.542.025v7.527h10.4L4.809,41.1V51.867L39.2,19.774S41.345,17.928,41.345,16.272Z" fill="#e3007f"/><path d="M41.187,41.832s-8.741-8.22-9.251-8.728a4.05,4.05,0,0,0-6.795,3.136v25.3h7.841V44.707l8.205,7.735Z" fill="#e3007f"/><path d="M35.874,34.968c2.263,2.859,5.245.522,5.245.522l4.25-3.833V21.169l-8.911,8.3S33.611,32.107,35.874,34.968Z" fill="#e3007f"/><path d="M42.338,12.806v7.23H58.576v41.5H66.73V15.872c0-3.066-3.206-3.066-3.206-3.066Z" fill="#e3007f"/><path d="M46.381,24.687v36.85h8.084V24.687s.156-2.769-3.973-2.769S46.381,24.687,46.381,24.687Z" fill="#e3007f"/><path d="M157.12,79.048l8.154-7.736V57.339c0-3.066-3.205-3.066-3.205-3.066H120.811V61.5H157.12Z" fill="#e3007f"/><path d="M165.344,27.511a3.28,3.28,0,0,0-3.24-3.555l-33.244-.014.017-8.192s-.069-3.084-4.094-3.084-3.973,3.084-3.973,3.084V31.169H162.1A3.406,3.406,0,0,0,165.344,27.511Z" fill="#e3007f"/><path d="M163.254,42.772a3.281,3.281,0,0,0-3.242-3.554L122.728,39.2v7.23h37.285A3.408,3.408,0,0,0,163.254,42.772Z" fill="#e3007f"/><path d="M93.23,11.935c4.024,0,3.973-3.084,3.973-3.084V5.088h-8.05l-.018,3.763S89.205,11.935,93.23,11.935Z" fill="#e3007f"/><path d="M76.969,33.6V61.513H99.05s14.4,0,14.4-13.9S99.05,33.6,99.05,33.6Zm28.353,13.984c0,6.48-5.906,6.48-5.906,6.48H85.094V51.049H98.109a3.406,3.406,0,0,0,3.24-3.658,3.28,3.28,0,0,0-3.24-3.555L85.094,43.82V41.048H99.416S105.322,41.1,105.322,47.582Z" fill="#e3007f"/><path d="M117.5,27.511a3.28,3.28,0,0,0-3.24-3.555l-8.92,0V20.036h4.9a3.407,3.407,0,0,0,3.24-3.659,3.28,3.28,0,0,0-3.24-3.554l-37.32-.018v7.23h8.171v3.907l-12.126,0v7.23h45.3A3.406,3.406,0,0,0,117.5,27.511ZM97.29,23.949l-8.154,0v-3.91H97.29Z" fill="#e3007f"/><path d="M27.367,70.74H24.281v3.072h-.824V70.74h-4.5V81.183h4.5V77.618h.824v3.564h4.5V70.74Z" fill="#fff"/><path d="M25.7,75.229V72.157h1.668v7.608H25.7V76.2h-3.66v3.564H20.371V72.157h1.668v3.072Z" fill="#e3007f"/><path d="M34.387,70.74H32.258l-4.99,10.442h4.669l.912-2.267h1.009l.84,2.267h4.937l-4.3-10.442Z" fill="#fff"/><path d="M34.387,72.157l3.133,7.608H35.684l-.84-2.267H31.891l-.912,2.267H29.516l3.636-7.608ZM34.5,76.6l-1.067-2.88L32.264,76.6Z" fill="#e3007f"/><path d="M46.1,70.74H37.037v3.843h2.977v6.6h4.515v-6.6h2.987V70.74Z" fill="#fff"/><path d="M46.1,72.157v1.009H43.111v6.6H41.431v-6.6H38.455V72.157Z" fill="#e3007f"/><path d="M46.1,74.233a3.15,3.15,0,0,0,1.063,2.429c-.044.129-.108.311-.108.311l-.288.156a1.514,1.514,0,0,0-.814,1.387c0,.057,0,.116.007.177l.115.9a1.565,1.565,0,0,0,1.239,1.4,10.229,10.229,0,0,0,2.506.336,4.92,4.92,0,0,0,3.1-1.017,3.578,3.578,0,0,0,1.366-2.776,3.072,3.072,0,0,0-1.455-2.677c.012-.035.034-.1.034-.1l.276-.145a1.516,1.516,0,0,0,.835-1.388c0-.058,0-.117-.008-.18l-.1-.818-.02-.091a1.6,1.6,0,0,0-.937-1.179,7.475,7.475,0,0,0-2.327-.361C47.943,70.6,46.1,72.092,46.1,74.233Z" fill="#fff"/><path d="M52.555,73.166c.012.144.012.144-.072.191l-.275.145c-.061.023-.072.035-.1.035a1.938,1.938,0,0,1-.4-.239,3.248,3.248,0,0,0-1.381-.349c-.827,0-1.295.385-1.295.96,0,.612.359.769,1.607,1.345s2.221,1.008,2.221,2.279c0,1.3-1.225,2.376-3.049,2.376a8.906,8.906,0,0,1-2.136-.287c-.181-.049-.192-.084-.2-.217l-.107-.828c-.012-.144-.012-.155.072-.2l.287-.156a.13.13,0,0,1,.084-.036c.024,0,.336.2.4.24a3.609,3.609,0,0,0,1.764.492c1.02,0,1.38-.54,1.38-1.045,0-.611-.468-.8-1.487-1.247-1.177-.5-2.352-1.009-2.352-2.389,0-1.4,1.308-2.22,3.072-2.22a6.626,6.626,0,0,1,1.752.24c.108.048.108.1.132.2Z" fill="#e3007f"/><path d="M62.274,70.74h-2.63v5.413a5.9,5.9,0,0,1-.05,1.071,1.634,1.634,0,0,1-.681.128.911.911,0,0,1-.4-.067c-.006-.181-.018-.592-.018-.592V70.74h-4.5v6.025A4.248,4.248,0,0,0,55.1,80.186a4.784,4.784,0,0,0,3.406,1.14,5.538,5.538,0,0,0,3.758-1.24c1.259-1.119,1.3-2.613,1.332-3.933l.131-5.413Z" fill="#fff"/><path d="M57.078,72.157v4.536c0,.852,0,1.2.336,1.572a2.006,2.006,0,0,0,1.5.5,2.335,2.335,0,0,0,1.764-.647c.385-.421.385-.984.385-1.969v-4h1.212l-.1,3.96c-.035,1.381-.108,2.244-.863,2.916a4.176,4.176,0,0,1-2.809.876,3.393,3.393,0,0,1-2.436-.756c-.6-.563-.66-1.26-.66-2.388V72.157Z" fill="#e3007f"/><path d="M72.463,70.74H69.819s.042,2.368.054,3.033l-2.76-3.033h-3.25l-.049,10.442h4.066s-.043-2.41-.056-3.137l3.168,3.472,2.872-.735.017-10.042Z" fill="#fff"/><path d="M66.486,72.157l4.872,5.353-.1-5.353h1.2l-.013,7.524-.983.252-5.125-5.616.1,5.448h-1.2l.036-7.608Z" fill="#e3007f"/><path d="M81.1,70.74H74.164V81.183h8.488V77.341h-.528v-2.83h.4V70.74Z" fill="#fff"/><path d="M81.1,72.157v.937H77.25v2.2h3.457v.947H77.25v2.521h3.984v1.008H75.582V72.157Z" fill="#e3007f"/><path d="M96.8,70.74H94.407l-1.893,3.7-1.786-3.7H87.014l-.708,10.442h4.137s.009-.538.015-.951l.5,1.05,2.515-.394s.536-1.019.575-1.1l.047,1.391h4.448L98.165,70.74Z" fill="#fff"/><path d="M89.838,72.157l2.641,5.473,2.8-5.473H96.8l.275,7.608H95.467l-.181-5.376L92.551,79.6l-.768.12-2.651-5.544-.084,5.592H87.822l.516-7.608Z" fill="#e3007f"/><polygon points="101.706 70.74 98.621 70.74 98.621 81.183 103.123 81.183 103.123 70.74 101.706 70.74" fill="#fff"/><path d="M101.706,72.157v7.608h-1.668V72.157Z" fill="#e3007f"/><path d="M111.642,70.74h-2.433l-1.334,1.446V70.74h-4.5V81.183h4.5v-1.29l.951,1.29h5.768l-4.41-5.65,4.969-4.792Z" fill="#fff"/><path d="M106.458,72.157v7.608H104.79V72.157Zm5.184,0-3.36,3.24,3.408,4.368h-2.147l-2.988-4.056,3.276-3.553Z" fill="#e3007f"/><path d="M120.414,70.74h-2.629v5.413a5.788,5.788,0,0,1-.051,1.071,1.631,1.631,0,0,1-.68.128.914.914,0,0,1-.4-.067c0-.181-.017-.592-.017-.592V70.74h-4.5v6.025a4.248,4.248,0,0,0,1.108,3.421,4.779,4.779,0,0,0,3.406,1.14,5.535,5.535,0,0,0,3.756-1.24c1.26-1.119,1.3-2.613,1.332-3.933l.132-5.413Z" fill="#fff"/><path d="M115.219,72.157v4.536c0,.852,0,1.2.336,1.572a2,2,0,0,0,1.5.5,2.338,2.338,0,0,0,1.764-.647c.384-.421.384-.984.384-1.969v-4h1.212l-.1,3.96c-.036,1.381-.108,2.244-.864,2.916a4.174,4.174,0,0,1-2.808.876,3.392,3.392,0,0,1-2.436-.756c-.6-.563-.66-1.26-.66-2.388V72.157Z" fill="#e3007f"/></g></g></svg>