<?xml version="1.0" encoding="utf-8"?>
<!-- Generator: Adobe Illustrator 19.1.0, SVG Export Plug-In . SVG Version: 6.00 Build 0)  -->
<svg version="1.1" id="レイヤー_1" xmlns="http://www.w3.org/2000/svg" xmlns:xlink="http://www.w3.org/1999/xlink" x="0px"
	 y="0px" width="50px" height="12px" viewBox="0 0 50 12" enable-background="new 0 0 50 12" xml:space="preserve">
<g>
	<path fill="#666666" d="M39.201,0.068l-3.397,2.175c0,0-0.963,0.587-0.963,1.97v3.906c0,0.69,0.562,1.252,1.252,1.252
		c0.691,0,1.252-0.562,1.252-1.252V4.923c0-0.795,0.55-1.043,0.55-1.043l2.656-1.702l0-1.51L39.201,0.068z"/>
	<path fill="#666666" d="M4.563,0.48C2.294,0.48,0.37,2.163,0.073,4.401C0.042,4.513,0.027,4.619,0.027,4.724V12l2.504-1.632V5.016
		C2.531,4.474,2.743,3.964,3.126,3.58C3.51,3.196,4.021,2.985,4.563,2.984c0.542,0,1.053,0.212,1.436,0.595
		c0.384,0.385,0.595,0.895,0.596,1.437c0,0.543-0.212,1.053-0.595,1.436C5.616,6.836,5.105,7.047,4.563,7.048
		c-0.378,0-0.739-0.105-1.053-0.296v2.675c0.345,0.083,0.699,0.126,1.053,0.126c2.501-0.001,4.535-2.036,4.536-4.537
		C9.098,2.515,7.064,0.48,4.563,0.48"/>
	<path fill="#666666" d="M18.671,0.48c-2.501,0.001-4.536,2.035-4.536,4.536c0,2.501,2.035,4.535,4.536,4.536h0
		c0.362,0,0.714-0.043,1.052-0.124V6.752c-0.315,0.191-0.676,0.296-1.052,0.296c-0.543,0-1.053-0.211-1.437-0.594
		c-0.384-0.385-0.595-0.896-0.596-1.437c0.001-0.543,0.212-1.053,0.595-1.437c0.385-0.384,0.895-0.595,1.438-0.595
		c0.542,0,1.052,0.212,1.436,0.594c0.384,0.385,0.595,0.896,0.596,1.437c0,0.002,0,0.003,0,0.005v3.381l0.903,0.592l1.601,1.029
		c0,0,0-4.694,0-5.007C23.207,2.515,21.172,0.48,18.671,0.48"/>
	<path fill="#666666" d="M29.037,0.48c-2.269,0.001-4.193,1.684-4.49,3.921C24.516,4.513,24.5,4.619,24.5,4.724v5.643l2.504,1.599
		v-1.057V9.07V5.016c0.001-0.542,0.212-1.053,0.595-1.437c0.384-0.384,0.895-0.595,1.437-0.595c0.542,0,1.052,0.212,1.436,0.595
		c0.384,0.385,0.596,0.895,0.596,1.437c0,0.543-0.212,1.053-0.595,1.436c-0.384,0.384-0.895,0.595-1.436,0.596
		c-0.378,0-0.739-0.105-1.054-0.296v2.675c0.345,0.083,0.699,0.126,1.053,0.126c2.5-0.001,4.535-2.036,4.536-4.537
		C33.572,2.515,31.537,0.48,29.037,0.48"/>
	<path fill="#666666" d="M45.437,0.48c-2.501,0.001-4.536,2.036-4.536,4.536c0,1.77,1.022,3.302,2.504,4.05V5.021
		c0-0.001,0-0.003,0-0.004c0-0.542,0.212-1.053,0.594-1.437c0.385-0.384,0.896-0.595,1.438-0.595c0.542,0,1.053,0.212,1.436,0.594
		c0.384,0.385,0.595,0.895,0.595,1.437c0,0.542-0.212,1.053-0.595,1.437c-0.384,0.384-0.895,0.595-1.437,0.595
		c-0.377,0-0.738-0.104-1.053-0.296v2.672c0.338,0.081,0.69,0.128,1.053,0.128h0c2.501-0.001,4.535-2.036,4.536-4.536
		C49.973,2.515,47.938,0.48,45.437,0.48"/>
	<polygon fill="#666666" points="11.659,0 10.407,0.697 10.407,2.375 11.659,1.677 12.911,2.375 12.911,0.697 	"/>
	<path fill="#666666" d="M10.407,3.44v4.836c0,0.69,0.562,1.252,1.252,1.252c0.69,0,1.252-0.562,1.252-1.252V3.44l-1.252-0.697
		L10.407,3.44z"/>
</g>
</svg>
